<?xml version="1.0" encoding="UTF-8"?>
<svg width="165px" height="165px" viewBox="0 0 165 165" version="1.1" xmlns="http://www.w3.org/2000/svg" xmlns:xlink="http://www.w3.org/1999/xlink">
    <title>Artboard</title>
    <g id="Artboard" stroke="none" stroke-width="1" fill="none" fill-rule="evenodd">
        <g id="design-sprints" transform="translate(0.000000, 12.000000)" fill="#979797" fill-rule="nonzero">
            <g id="Group">
                <path d="M164.570089,55.0902842 C163.937227,53.3297383 162.57419,51.9290098 160.831956,51.2487836 C159.171841,50.6174681 157.323385,50.7099251 155.734501,51.5037504 L146.338194,56.2291361 C145.957262,56.409542 145.501988,56.2956816 145.250737,55.9571715 L129.193757,34.4719645 C129.057678,34.3131379 128.903737,34.1705469 128.734986,34.0470197 L113.255717,23.7973522 C113.023427,23.6619306 112.771056,23.5643878 112.50809,23.5083897 L78.9668423,18.4090526 C78.3887443,18.3144415 77.8004913,18.5042707 77.3866315,18.9189863 L58.0332974,38.0584983 C56.4659211,39.469481 55.9287348,41.7002115 56.681881,43.6704164 C57.4350273,45.6406214 59.3230347,46.943593 61.4316001,46.9483426 C62.7731288,46.9971679 64.0797583,46.5146359 65.0677841,45.6055172 L82.6879838,30.1885213 C82.9081949,29.9873055 83.2177512,29.9163393 83.5035765,30.0015456 L102.73797,35.5088297 C102.952461,35.6052586 103.119678,35.7832441 103.202596,36.0033769 C103.285514,36.2235097 103.277292,36.4676272 103.179749,36.6816772 L89.3656487,66.8697529 L70.2501958,94.1852019 L70.1312552,94.3381821 L47.5665249,114.73553 C45.1207852,116.954685 44.8841624,120.717764 47.0326423,123.226017 C49.1811223,125.73427 52.9346427,126.077009 55.5015618,123.999326 L79.9013756,103.924936 L80.0373077,103.805951 L96.2302203,87.5900593 C96.5380117,87.2873735 97.0193594,87.2514387 97.3686517,87.5050703 L119.219738,103.907938 C119.47942,104.100445 119.610424,104.421526 119.559569,104.74083 L115.19275,135.336852 C115.176351,135.614241 115.176351,135.892356 115.19275,136.169744 C115.192533,139.363331 117.760682,141.962743 120.952873,141.999993 L121.156771,141.999993 C124.064846,142.004354 126.566876,139.943517 127.120792,137.087625 L133.917398,100.525378 C134.029677,99.893755 133.804207,99.2493176 133.322695,98.8255987 L112.644023,80.6719586 C112.375594,80.4344035 112.281042,80.056056 112.406141,79.7200824 L123.331685,49.6679891 C123.384783,49.5334781 123.46587,49.411802 123.569566,49.3110355 C123.746526,49.15385 123.979121,49.0742484 124.215243,49.0900642 C124.445386,49.1119105 124.658317,49.221458 124.809946,49.3960244 L142.617053,69.6913861 C143.143937,70.3112383 144.01826,70.5056039 144.757984,70.1673242 L161.358692,62.8922699 L161.358692,62.8922699 C164.357092,61.5833819 165.777827,58.1317509 164.570089,55.0902842 Z M159.897422,59.4927119 L159.897422,59.4927119 L144.60506,66.291828 L127.613546,46.9483426 C125.944649,45.0538676 123.059391,44.8639779 121.156771,46.5233978 C120.573529,47.0327552 120.129182,47.6819742 119.865416,48.4101526 L108.922881,78.4452481 C108.25565,80.2485066 108.769249,82.2766194 110.214236,83.5445852 L130.094307,100.933325 L123.433634,136.373718 C123.204141,137.499604 122.203219,138.300638 121.054822,138.27747 C120.473985,138.300753 119.908992,138.084866 119.491577,137.680146 C119.074162,137.275425 118.840809,136.717244 118.845925,136.135748 C118.837726,136.039602 118.837726,135.942932 118.845925,135.846786 L123.212744,105.250763 C123.472588,103.609676 122.822065,101.956737 121.513593,100.933325 L99.59454,84.5474548 C98.8041027,83.9590023 97.8441973,83.6428918 96.8589063,83.6465719 C95.6488875,83.6558105 94.4903753,84.1376856 93.6305187,84.9893974 L77.5225636,101.137298 L53.1397414,121.041711 C52.1290375,121.814527 50.6907857,121.662385 49.8640081,120.695195 C49.0372306,119.728005 49.1102407,118.283045 50.0302944,117.404184 L72.5950247,97.0918241 C72.8539794,96.8563224 73.0874789,96.5942505 73.2916767,96.3099257 L92.3901382,69.0114745 C92.5597234,68.776064 92.7075903,68.5257353 92.8319175,68.2635717 L106.425129,38.2114784 C106.930571,37.1051291 106.974499,35.8429051 106.547195,34.7040699 C106.119891,33.5652347 105.25658,32.6436692 104.148266,32.1432672 C103.947756,32.0418124 103.737002,31.9620383 103.51958,31.9052982 L84.4551013,26.4490075 C82.9592487,26.0057709 81.3406518,26.365592 80.1732398,27.4008837 L62.519057,42.8518751 C62.2535376,43.1249818 61.8888936,43.2790571 61.5080619,43.2790571 C61.1272303,43.2790571 60.7625863,43.1249818 60.4970669,42.8518751 C60.2263696,42.5838811 60.0839998,42.2123444 60.1062621,41.8320077 C60.1261082,41.4345773 60.3034367,41.0614382 60.599016,40.7951425 L79.2896811,22.0975731 L111.573557,27.0609279 L126.458123,36.9876375 L142.379172,58.2178776 C143.711825,59.927473 146.064232,60.4606926 148.003363,59.4927119 L157.39967,54.7843239 C158.034345,54.4634595 158.775147,54.4264057 159.438651,54.6823372 C160.208583,54.9716674 160.80346,55.5980847 161.052845,56.3821162 C161.56355,57.5611804 161.053857,58.9333602 159.897422,59.4927119 Z" id="Shape"></path>
                <path d="M16.8798511,47.3902852 L49.6394896,47.3902852 C50.6623624,47.3902852 51.4915646,46.5607766 51.4915646,45.537526 C51.4915646,44.5142754 50.6623624,43.6847669 49.6394896,43.6847669 L16.8798511,43.6847669 C15.8569783,43.6847669 15.0277761,44.5142754 15.0277761,45.537526 C15.0277761,46.5607766 15.8569783,47.3902852 16.8798511,47.3902852 Z" id="Path"></path>
                <path d="M2.19918319,47.3902852 L10.559008,47.3902852 C11.5818807,47.3902852 12.411083,46.5607766 12.411083,45.537526 C12.411083,44.5142754 11.5818807,43.6847669 10.559008,43.6847669 L2.19918319,43.6847669 C1.17631042,43.6847669 0.347108196,44.5142754 0.347108196,45.537526 C0.347108196,46.5607766 1.17631042,47.3902852 2.19918319,47.3902852 Z" id="Path"></path>
                <path d="M44.3552105,60.1216301 C44.3596626,59.6318175 44.1683274,59.1605058 43.8236898,58.8125487 C43.4790523,58.4645916 43.009698,58.268871 42.5200453,58.268871 L9.70943227,58.268871 C8.68655949,58.268871 7.85735727,59.0983795 7.85735727,60.1216301 C7.85735727,61.1448807 8.68655949,61.9743893 9.70943227,61.9743893 L42.4860623,61.9743893 C42.9815787,61.9835925 43.4597484,61.7919057 43.8117883,61.4429372 C44.1638283,61.0939688 44.3598031,60.617393 44.3552105,60.1216301 L44.3552105,60.1216301 Z" id="Path"></path>
                <path d="M51.3217312,74.6887364 C51.3217312,74.1959145 51.1237374,73.7237546 50.7722073,73.3784885 C50.4206771,73.0332223 49.9451384,72.8438487 49.4525829,72.8529751 L16.7099359,72.8529751 C16.00903,72.7855836 15.3305513,73.1216219 14.9591893,73.7200884 C14.5878274,74.3185549 14.5878274,75.0759157 14.9591893,75.6743822 C15.3305513,76.2728487 16.00903,76.6088871 16.7099359,76.5414956 L49.4525829,76.5414956 C49.9480994,76.5506988 50.426269,76.359012 50.778309,76.0100435 C51.1303489,75.6610751 51.3263237,75.1844993 51.3217312,74.6887364 L51.3217312,74.6887364 Z" id="Path"></path>
                <path d="M2.02926806,76.4905022 L10.3721013,76.4905022 C11.0730072,76.5578937 11.751486,76.2218553 12.1228479,75.6233888 C12.4942098,75.0249223 12.4942098,74.2675616 12.1228479,73.6690951 C11.751486,73.0706286 11.0730072,72.7345902 10.3721013,72.8019817 L2.02926806,72.8019817 C1.32836213,72.7345902 0.649883378,73.0706286 0.278521448,73.6690951 C-0.0928404826,74.2675616 -0.0928404826,75.0249223 0.278521448,75.6233888 C0.649883378,76.2218553 1.32836213,76.5578937 2.02926806,76.4905022 L2.02926806,76.4905022 Z" id="Path"></path>
                <path d="M9.53951713,83.0856449 C8.51664442,83.0856449 7.68744229,83.9151534 7.68744229,84.938404 C7.68744229,85.9616546 8.51664442,86.7911632 9.53951713,86.7911632 L42.3161472,86.7911632 C43.3390199,86.7911632 44.168222,85.9616546 44.168222,84.938404 C44.168222,83.9151534 43.3390199,83.0856449 42.3161472,83.0856449 L9.53951713,83.0856449 Z" id="Path"></path>
                <path d="M51.3216494,95.1880716 C51.3216494,94.69373 51.1242107,94.2198791 50.7731957,93.8719266 C50.4221806,93.5239741 49.9467212,93.3307772 49.4525829,93.3353124 L16.7099359,93.3353124 C15.6870632,93.3353124 14.8578609,94.164821 14.8578609,95.1880716 C14.8578609,96.2113222 15.6870632,97.0408307 16.7099359,97.0408307 L49.4525829,97.0408307 C49.9467212,97.045366 50.4221806,96.8521691 50.7731957,96.5042166 C51.1242107,96.1562641 51.3216494,95.6824131 51.3216494,95.1880716 Z" id="Path"></path>
                <path d="M10.3721013,93.3353124 L2.02926806,93.3353124 C1.00639528,93.3353124 0.177193058,94.164821 0.177193058,95.1880716 C0.177193058,96.2113222 1.00639528,97.0408307 2.02926806,97.0408307 L10.3721013,97.0408307 C11.3949741,97.0408307 12.2241763,96.2113222 12.2241763,95.1880716 C12.2241763,94.164821 11.3949741,93.3353124 10.3721013,93.3353124 Z" id="Path"></path>
                <path d="M133.033839,31.0044247 C139.303033,31.0112919 144.958745,27.2387176 147.362626,21.4465706 C149.766507,15.6544236 148.44491,8.98395751 144.014351,4.5468958 C139.583791,0.109834093 132.917242,-1.21956833 127.1246,1.17884501 C121.331958,3.57725835 117.55457,9.2309169 117.55457,15.5024305 C117.563912,24.0534335 124.486009,30.9856887 133.033839,31.0044247 Z M133.033839,3.70596399 C139.546442,3.70596399 144.82595,8.98742193 144.82595,15.5024305 C144.82595,22.017439 139.546442,27.298897 133.033839,27.298897 C126.521236,27.298897 121.241729,22.017439 121.241729,15.5024305 C121.297119,9.01051226 126.544318,3.76137456 133.033839,3.70596399 Z" id="Shape"></path>
            </g>
        </g>
    </g>
</svg>
