<?xml version="1.0" encoding="UTF-8"?>
<svg width="167px" height="167px" viewBox="0 0 167 167" version="1.1" xmlns="http://www.w3.org/2000/svg" xmlns:xlink="http://www.w3.org/1999/xlink">
    <title>mapbased-inclusion</title>
    <g id="mapbased-inclusion" stroke="none" stroke-width="1" fill="none" fill-rule="evenodd">
        <rect fill="#FFFFFF" x="0" y="0" width="167" height="167"></rect>
        <g id="noun_citizens_1711240" fill-rule="nonzero" stroke="#000000">
            <g id="Group">
                <circle id="Oval" cx="83.6739583" cy="7.30625" r="6.43645833"></circle>
                <path d="M71.496875,32.5302083 C72.540625,33.0520833 73.9322917,32.7041667 74.628125,31.4864583 L78.28125,24.00625 L76.715625,34.0958333 C76.5416667,35.3135417 77.4114583,36.3572917 78.6291667,36.3572917 L88.5447917,36.3572917 C89.7625,36.3572917 90.6322917,35.3135417 90.4583333,34.0958333 L88.8927083,24.00625 L92.5458333,31.4864583 C92.89375,32.35625 93.7635417,32.7041667 94.6333333,32.7041667 C94.98125,32.7041667 95.3291667,32.7041667 95.6770833,32.5302083 C96.7208333,32.0083333 97.2427083,30.6166667 96.7208333,29.3989583 L90.4583333,17.221875 C90.1104167,16.5260417 89.240625,16.0041667 88.3708333,16.0041667 L78.6291667,16.0041667 C77.759375,16.0041667 76.8895833,16.5260417 76.5416667,17.221875 L70.6270833,29.5729167 C69.93125,30.6166667 70.453125,32.0083333 71.496875,32.5302083 Z" id="Path"></path>
                <circle id="Oval" transform="translate(29.728627, 29.555677) rotate(-45.000000) translate(-29.728627, -29.555677) " cx="29.7286268" cy="29.5556774" r="6.43639661"></circle>
                <path d="M31.834375,41.4020833 L36.1833333,54.4489583 C36.53125,55.6666667 37.9229167,56.3625 39.140625,55.840625 C40.3583333,55.4927083 41.0541667,54.1010417 40.5322917,52.8833333 L37.9229167,44.88125 L43.8375,53.0572917 C44.5333333,54.1010417 45.925,54.1010417 46.7947917,53.23125 L53.753125,46.2729167 C54.6229167,45.403125 54.4489583,44.0114583 53.5791667,43.315625 L45.2291667,37.7489583 L53.23125,40.3583333 C54.1010417,40.70625 54.9708333,40.3583333 55.4927083,39.8364583 C55.6666667,39.6625 55.840625,39.3145833 56.0145833,38.9666667 C56.3625,37.7489583 55.840625,36.53125 54.6229167,36.009375 L41.5760417,31.6604167 C40.70625,31.3125 39.8364583,31.6604167 39.3145833,32.1822917 L32.35625,39.140625 C31.6604167,39.6625 31.4864583,40.70625 31.834375,41.4020833 Z" id="Path"></path>
                <circle id="Oval" cx="7.30625" cy="83.3260417" r="6.43645833"></circle>
                <path d="M32.5302083,95.503125 C33.0520833,94.459375 32.7041667,93.0677083 31.4864583,92.371875 L24.00625,88.71875 L34.0958333,90.284375 C35.3135417,90.4583333 36.3572917,89.5885417 36.3572917,88.3708333 L36.3572917,78.4552083 C36.3572917,77.2375 35.3135417,76.3677083 34.0958333,76.5416667 L24.00625,78.1072917 L31.4864583,74.4541667 C32.35625,74.10625 32.7041667,73.2364583 32.7041667,72.3666667 C32.7041667,72.01875 32.7041667,71.6708333 32.5302083,71.3229167 C32.0083333,70.2791667 30.6166667,69.7572917 29.3989583,70.2791667 L17.221875,76.5416667 C16.5260417,76.8895833 16.0041667,77.759375 16.0041667,78.6291667 L16.0041667,88.3708333 C16.0041667,89.240625 16.5260417,90.1104167 17.221875,90.4583333 L29.5729167,96.546875 C30.6166667,97.06875 32.0083333,96.546875 32.5302083,95.503125 Z" id="Path"></path>
                <circle id="Oval" transform="translate(29.552198, 137.273983) rotate(-45.000000) translate(-29.552198, -137.273983) " cx="29.5521982" cy="137.273983" r="6.43639661"></circle>
                <path d="M53.0572917,126.467708 L45.0552083,129.077083 L53.23125,123.1625 C54.275,122.466667 54.275,121.075 53.4052083,120.205208 L46.446875,113.246875 C45.5770833,112.377083 44.1854167,112.551042 43.4895833,113.420833 L37.7489583,121.770833 L40.3583333,113.76875 C40.70625,112.898958 40.3583333,112.029167 39.8364583,111.507292 C39.6625,111.333333 39.3145833,111.159375 38.9666667,110.985417 C37.7489583,110.6375 36.53125,111.159375 36.009375,112.377083 L31.6604167,125.423958 C31.3125,126.29375 31.6604167,127.163542 32.1822917,127.685417 L39.140625,134.64375 C39.8364583,135.339583 40.70625,135.513542 41.4020833,135.165625 L54.4489583,130.816667 C55.6666667,130.46875 56.3625,129.077083 55.840625,127.859375 C55.4927083,126.815625 54.275,126.119792 53.0572917,126.467708 Z" id="Path"></path>
                <circle id="Oval" cx="83.3260417" cy="159.69375" r="6.43645833"></circle>
                <path d="M95.503125,134.469792 C94.459375,133.947917 93.0677083,134.295833 92.371875,135.513542 L88.71875,142.99375 L90.284375,132.904167 C90.4583333,131.686458 89.5885417,130.642708 88.3708333,130.642708 L78.4552083,130.642708 C77.2375,130.642708 76.3677083,131.686458 76.5416667,132.904167 L78.1072917,142.99375 L74.4541667,135.513542 C74.10625,134.64375 73.2364583,134.295833 72.3666667,134.295833 C72.01875,134.295833 71.6708333,134.295833 71.3229167,134.469792 C70.2791667,134.991667 69.7572917,136.383333 70.2791667,137.601042 L76.3677083,149.952083 C76.715625,150.647917 77.5854167,151.169792 78.4552083,151.169792 L88.196875,151.169792 C89.0666667,151.169792 89.9364583,150.647917 90.284375,149.952083 L96.3729167,137.601042 C97.06875,136.383333 96.546875,134.991667 95.503125,134.469792 Z" id="Path"></path>
                <circle id="Oval" transform="translate(137.268938, 137.444323) rotate(-45.000000) translate(-137.268938, -137.444323) " cx="137.268938" cy="137.444323" r="6.43639661"></circle>
                <path d="M135.165625,125.597917 L130.816667,112.551042 C130.46875,111.333333 129.077083,110.6375 127.859375,111.159375 C126.641667,111.507292 125.945833,112.898958 126.467708,114.116667 L129.077083,122.11875 L123.1625,113.942708 C122.466667,112.898958 121.075,112.898958 120.205208,113.76875 L113.246875,120.727083 C112.377083,121.596875 112.551042,122.988542 113.420833,123.684375 L121.596875,129.598958 L113.594792,126.989583 C112.725,126.641667 111.855208,126.989583 111.333333,127.511458 C111.159375,127.685417 110.985417,128.033333 110.811458,128.38125 C110.463542,129.598958 110.985417,130.816667 112.203125,131.338542 L125.25,135.6875 C126.119792,136.035417 126.989583,135.6875 127.511458,135.165625 L134.469792,128.207292 C135.339583,127.3375 135.513542,126.29375 135.165625,125.597917 Z" id="Path"></path>
                <circle id="Oval" cx="159.69375" cy="83.6739583" r="6.43645833"></circle>
                <path d="M149.778125,76.715625 L137.427083,70.6270833 C136.383333,70.1052083 134.991667,70.453125 134.295833,71.6708333 C133.773958,72.7145833 134.121875,74.10625 135.339583,74.8020833 L142.819792,78.4552083 L132.730208,76.8895833 C131.5125,76.715625 130.46875,77.5854167 130.46875,78.803125 L130.46875,88.71875 C130.46875,89.9364583 131.5125,90.80625 132.730208,90.6322917 L142.819792,89.0666667 L135.339583,92.7197917 C134.469792,93.0677083 134.121875,93.9375 134.121875,94.8072917 C134.121875,95.1552083 134.121875,95.503125 134.295833,95.8510417 C134.817708,96.8947917 136.209375,97.4166667 137.427083,96.8947917 L149.778125,90.80625 C150.473958,90.4583333 150.995833,89.5885417 150.995833,88.71875 L150.995833,78.9770833 C150.995833,77.759375 150.647917,77.0635417 149.778125,76.715625 Z" id="Path"></path>
                <circle id="Oval" transform="translate(137.443105, 29.729844) rotate(-45.000000) translate(-137.443105, -29.729844) " cx="137.443105" cy="29.7298445" r="6.43639661"></circle>
                <path d="M113.942708,40.5322917 L121.944792,37.9229167 L113.76875,43.8375 C112.725,44.5333333 112.725,45.925 113.594792,46.7947917 L120.553125,53.753125 C121.422917,54.6229167 122.814583,54.4489583 123.510417,53.5791667 L129.425,45.403125 L126.815625,53.4052083 C126.467708,54.275 126.815625,55.1447917 127.3375,55.6666667 C127.511458,55.840625 127.859375,56.0145833 128.207292,56.1885417 C129.425,56.5364583 130.642708,56.0145833 131.164583,54.796875 L135.513542,41.75 C135.861458,40.8802083 135.513542,40.0104167 134.991667,39.4885417 L128.033333,32.5302083 C127.3375,31.834375 126.467708,31.6604167 125.771875,32.0083333 L112.725,36.3572917 C111.507292,36.7052083 110.811458,38.096875 111.333333,39.3145833 C111.507292,40.184375 112.725,40.8802083 113.942708,40.5322917 Z" id="Path"></path>
            </g>
        </g>
        <g id="map-with-pins" transform="translate(50.000000, 59.000000)">
            <g id="Map" transform="translate(0.812104, 5.000000)" stroke="#979797">
                <polygon id="v" stroke-linecap="round" stroke-linejoin="round" points="22.8050449 43.6249302 32.1538305 31.7333214 52.2304762 23.6196552 66.4175911 13.0560476 42.5191879 -1.07806484e-14 30.424272 3.17102005 9.69732942 3.99793103 0 10.2737924"></polygon>
                <line x1="9.69732942" y1="3.99793103" x2="32.1538305" y2="31.7333214" id="Path-5"></line>
                <line x1="30.424272" y1="3.17102005" x2="52.2304762" y2="23.6196552" id="Path-6"></line>
            </g>
            <g id="Group" transform="translate(13.812104, 20.000000)" stroke="#000000">
                <ellipse id="Oval" cx="2.5" cy="2.67647059" rx="2.5" ry="2.67647059"></ellipse>
                <line x1="2.33966066" y1="5.35294118" x2="2.33966066" y2="12.836817" id="Path-7" stroke-linecap="round"></line>
            </g>
            <g id="Group" transform="translate(29.812104, 12.000000)" stroke="#000000">
                <ellipse id="Oval" cx="2.5" cy="2.67647059" rx="2.5" ry="2.67647059"></ellipse>
                <line x1="2.33966066" y1="5.35294118" x2="2.33966066" y2="12.836817" id="Path-7" stroke-linecap="round"></line>
            </g>
            <g id="Group" transform="translate(20.812104, 0.000000)" stroke="#000000">
                <ellipse id="Oval" cx="2.5" cy="2.67647059" rx="2.5" ry="2.67647059"></ellipse>
                <line x1="2.33966066" y1="5.35294118" x2="2.33966066" y2="12.836817" id="Path-7" stroke-linecap="round"></line>
            </g>
            <g id="Group" transform="translate(50.812104, 12.000000)" stroke="#000000">
                <ellipse id="Oval" cx="2.5" cy="2.67647059" rx="2.5" ry="2.67647059"></ellipse>
                <line x1="2.33966066" y1="5.35294118" x2="2.33966066" y2="12.836817" id="Path-7" stroke-linecap="round"></line>
            </g>
        </g>
    </g>
</svg>