<?xml version="1.0" encoding="UTF-8"?>
<svg width="167px" height="167px" viewBox="0 0 167 167" version="1.1" xmlns="http://www.w3.org/2000/svg" xmlns:xlink="http://www.w3.org/1999/xlink">
    <title>questionnaires</title>
    <g id="questionnaires" stroke="none" stroke-width="1" fill="none" fill-rule="evenodd">
        <rect fill="#FFFFFF" x="0" y="0" width="167" height="167"></rect>
        <g id="map-with-pins" transform="translate(17.000000, 11.000000)" stroke-width="2">
            <g id="Map" transform="translate(0.000000, 9.000000)" stroke="#979797" stroke-linecap="round" stroke-linejoin="round">
                <polygon id="v" points="24.1665402 43.6249302 34.0734622 31.7333214 55.3487136 23.6196552 70.3828204 13.0560476 45.0576469 -1.07806484e-14 32.2406464 3.17102005 10.2762745 3.99793103 0 10.2737924"></polygon>
                <line x1="10.2762745" y1="3.99793103" x2="34.0734622" y2="31.7333214" id="Path-5"></line>
                <line x1="32.2406464" y1="3.17102005" x2="55.3487136" y2="23.6196552" id="Path-6"></line>
            </g>
            <g id="Group" transform="translate(13.000000, 19.000000)" stroke="#000000">
                <g transform="translate(1.000000, 1.000000)">
                    <circle id="Oval" cx="3.5" cy="3.5" r="3.5"></circle>
                    <line x1="3.27552492" y1="7" x2="3.27552492" y2="16.7866069" id="Path-7" stroke-linecap="round" stroke-linejoin="round"></line>
                </g>
            </g>
            <g id="Group" transform="translate(30.000000, 15.000000)" stroke="#000000">
                <g transform="translate(1.000000, 1.000000)">
                    <circle id="Oval" cx="3.5" cy="3.5" r="3.5"></circle>
                    <line x1="3.27552492" y1="7" x2="3.27552492" y2="16.7866069" id="Path-7" stroke-linecap="round" stroke-linejoin="round"></line>
                </g>
            </g>
            <g id="Group" transform="translate(20.000000, 0.000000)" stroke="#000000">
                <g transform="translate(1.000000, 1.000000)">
                    <circle id="Oval" cx="3.5" cy="3.5" r="3.5"></circle>
                    <line x1="3.27552492" y1="7" x2="3.27552492" y2="16.7866069" id="Path-7" stroke-linecap="round" stroke-linejoin="round"></line>
                </g>
            </g>
            <g id="Group" transform="translate(52.000000, 9.000000)" stroke="#000000">
                <g transform="translate(1.000000, 1.000000)">
                    <circle id="Oval" cx="3.5" cy="3.5" r="3.5"></circle>
                    <line x1="3.27552492" y1="7" x2="3.27552492" y2="16.7866069" id="Path-7" stroke-linecap="round" stroke-linejoin="round"></line>
                </g>
            </g>
        </g>
        <rect id="Rectangle" stroke="#000000" stroke-width="2" stroke-linecap="round" stroke-linejoin="round" x="17" y="75" width="9" height="9"></rect>
        <rect id="Rectangle-Copy" stroke="#000000" stroke-width="2" stroke-linecap="round" stroke-linejoin="round" x="17" y="92" width="9" height="9"></rect>
        <rect id="Rectangle-Copy-2" stroke="#000000" stroke-width="2" stroke-linecap="round" stroke-linejoin="round" x="17" y="109" width="9" height="9"></rect>
        <rect id="Rectangle-Copy-3" stroke="#000000" stroke-width="2" stroke-linecap="round" stroke-linejoin="round" x="17" y="126" width="9" height="9"></rect>
        <rect id="Rectangle-Copy-4" stroke="#000000" stroke-width="2" stroke-linecap="round" stroke-linejoin="round" x="17" y="143" width="9" height="9"></rect>
        <line x1="33.8121037" y1="79.8724043" x2="69.5" y2="79.5" id="Path-7" stroke="#979797" stroke-width="2" stroke-linecap="round"></line>
        <line x1="33.8121037" y1="96.8724043" x2="88" y2="96.8724043" id="Path-7-Copy" stroke="#979797" stroke-width="2" stroke-linecap="round"></line>
        <line x1="33.8121037" y1="113.872404" x2="54.5" y2="113.5" id="Path-7-Copy-2" stroke="#979797" stroke-width="2" stroke-linecap="round"></line>
        <line x1="33.8121037" y1="130.872404" x2="79.5" y2="130.5" id="Path-7-Copy-3" stroke="#979797" stroke-width="2" stroke-linecap="round"></line>
        <line x1="33.8121037" y1="146.872404" x2="88" y2="146.872404" id="Path-7-Copy-4" stroke="#979797" stroke-width="2" stroke-linecap="round"></line>
    </g>
</svg>