<?xml version="1.0" encoding="UTF-8"?>
<svg width="165px" height="165px" viewBox="0 0 165 165" version="1.1" xmlns="http://www.w3.org/2000/svg"
     xmlns:xlink="http://www.w3.org/1999/xlink">
    <title>software-udvikling</title>
    <g id="software-udvikling" stroke="none" stroke-width="1" fill="none" fill-rule="evenodd">
        <rect fill="#FFFFFF" x="0" y="0" width="165" height="165"></rect>
        <g id="noun_code_2099228" transform="translate(22.000000, 32.000000)" fill="#000000" fill-rule="nonzero">
            <g id="Group">
                <path d="M32.1002779,20.2580817 C31.5824549,19.7408221 30.7433649,19.7408221 30.2255419,20.2580817 L0.388367206,50.0627989 C-0.129455735,50.5800586 -0.129455735,51.4182358 0.388367206,51.9354955 L30.2255419,81.7402127 C30.4844534,81.9988425 30.8233428,82.1288344 31.1635877,82.1288344 C31.5038326,82.1288344 31.842722,81.9988425 32.1016334,81.7402127 C32.6194564,81.222953 32.6194564,80.3847758 32.1016334,79.8675161 L3.20114889,50.9998242 L32.1002779,22.1321323 C32.6181008,21.6148727 32.6181008,20.7766954 32.1002779,20.2580817 Z" id="Path"></path>
                <path d="M121.610447,50.0627989 L91.7746273,20.2580817 C91.2568044,19.7408221 90.4177143,19.7408221 89.8998914,20.2580817 C89.3820685,20.7753413 89.3820685,21.6135186 89.8998914,22.1307783 L118.797665,50.9998242 L89.8985358,79.8675161 C89.3807129,80.3847758 89.3807129,81.222953 89.8985358,81.7402127 C90.1574473,81.9988425 90.4963367,82.1288344 90.8365816,82.1288344 C91.1768265,82.1288344 91.5157159,81.9988425 91.7746273,81.7402127 L121.611802,51.9354955 C122.129625,51.4195899 122.129625,50.5800586 121.610447,50.0627989 Z" id="Path"></path>
                <path d="M76.2982281,0.0565199366 C75.5987605,-0.154716985 74.8586261,0.24473745 74.6471591,0.944798274 L44.8099844,100.293856 C44.599873,100.993916 44.9984069,101.733246 45.6992301,101.943129 C45.8266525,101.981043 45.9540749,102 46.0801417,102 C46.6508314,102 47.1767877,101.628981 47.350299,101.05485 L77.1874738,1.70579283 C77.3989407,1.005732 77.0004068,0.266402775 76.2982281,0.0565199366 Z" id="Path"></path>
            </g>
        </g>
    </g>
</svg>
